<?xml version="1.0" encoding="utf-8"?>
<!-- Generator: Adobe Illustrator 16.0.0, SVG Export Plug-In . SVG Version: 6.00 Build 0)  -->
<!DOCTYPE svg PUBLIC "-//W3C//DTD SVG 1.1//EN" "http://www.w3.org/Graphics/SVG/1.1/DTD/svg11.dtd">
<svg version="1.1" id="Layer_1" xmlns="http://www.w3.org/2000/svg" xmlns:xlink="http://www.w3.org/1999/xlink" x="0px" y="0px"
	 width="148.667px" height="36px" viewBox="0 0 148.667 36" enable-background="new 0 0 148.667 36" xml:space="preserve">
<g>
	<g>
		<path fill="#39677B" d="M36.341,18.035c0,7.591-6.221,13.765-13.864,13.765c-7.641,0-13.86-6.176-13.86-13.765
			c0-1.009,0.113-1.989,0.322-2.934h4.595l8.949,14.619l8.943-14.619h4.6c0.206,0.944,0.321,1.927,0.321,2.934 M22.477,4.268
			c4.738,0,8.93,2.377,11.431,5.988h-5.352l-6.073,10.536l-6.077-10.536h-5.35c2.502-3.611,6.688-5.988,11.427-5.988 M44.594,10.256
			h-5.815C35.857,4.235,29.656,0.083,22.477,0.083c-7.176,0-13.375,4.152-16.294,10.174H0.366l2.049,4.845h2.229
			c-0.157,0.955-0.242,1.935-0.242,2.934c0,9.914,8.093,17.95,18.075,17.95c9.983,0,18.078-8.036,18.078-17.95
			c0-0.999-0.085-1.979-0.243-2.934h2.228l2.049-4.845H44.594z"/>
		<rect x="72.842" y="10.249" fill="#39677B" width="5.102" height="17.474"/>
		<path fill="#39677B" d="M93.526,18.548c-0.621-0.357-1.313-0.634-2.079-0.829c-0.76-0.195-1.519-0.341-2.271-0.438
			s-1.446-0.209-2.073-0.341c-0.634-0.13-1.142-0.304-1.522-0.52c-0.383-0.216-0.57-0.542-0.57-0.975
			c0-0.476,0.262-0.867,0.785-1.17c0.522-0.305,1.352-0.457,2.486-0.457c0.805,0,1.64,0.096,2.5,0.276
			c0.863,0.187,1.717,0.523,2.569,1.024l1.701-3.606c-0.829-0.498-1.864-0.875-3.108-1.137c-1.24-0.26-2.462-0.389-3.661-0.389
			c-1.7,0-3.162,0.244-4.382,0.729c-1.222,0.487-2.152,1.153-2.798,1.999c-0.642,0.846-0.963,1.815-0.963,2.921
			c0,0.995,0.192,1.809,0.575,2.437c0.378,0.627,0.886,1.126,1.52,1.494c0.631,0.369,1.33,0.643,2.093,0.827s1.52,0.329,2.272,0.438
			c0.753,0.109,1.443,0.218,2.075,0.325c0.632,0.108,1.141,0.265,1.52,0.471c0.381,0.205,0.572,0.514,0.572,0.926
			c0,0.5-0.244,0.89-0.737,1.17c-0.489,0.281-1.324,0.424-2.501,0.424c-1.069,0-2.155-0.157-3.254-0.471
			c-1.103-0.314-2.055-0.72-2.862-1.217l-1.7,3.635c0.805,0.542,1.902,0.991,3.287,1.349c1.384,0.356,2.829,0.536,4.333,0.536
			c1.765,0,3.261-0.237,4.496-0.714c1.233-0.476,2.176-1.131,2.83-1.964c0.654-0.833,0.981-1.792,0.981-2.875
			c0-0.996-0.196-1.803-0.589-2.418c-0.392-0.617-0.9-1.104-1.519-1.461"/>
		<path fill="#39677B" d="M110.125,18.89c0,1.062-0.177,1.941-0.523,2.646c-0.348,0.704-0.829,1.223-1.438,1.559
			c-0.613,0.337-1.308,0.504-2.093,0.504c-1.134,0-2.012-0.341-2.631-1.022c-0.623-0.682-0.933-1.747-0.933-3.199v-9.125h-5.104
			v9.873c0,1.797,0.316,3.273,0.949,4.434c0.632,1.159,1.52,2.017,2.665,2.583c1.146,0.563,2.449,0.843,3.908,0.843
			c1.352,0,2.602-0.309,3.747-0.925c0.67-0.359,1.239-0.825,1.717-1.386v2.053h4.839V10.249h-5.103V18.89z"/>
		<path fill="#39677B" d="M127.686,23.973c-0.677,0.4-1.438,0.601-2.29,0.601c-0.895,0-1.596-0.19-2.109-0.568
			c-0.513-0.376-0.768-0.893-0.768-1.542c0-0.584,0.227-1.071,0.672-1.461c0.446-0.391,1.269-0.585,2.467-0.585h3.5v1.785
			C128.852,22.983,128.362,23.572,127.686,23.973 M132.037,11.874c-1.484-1.257-3.565-1.884-6.246-1.884
			c-1.396,0-2.771,0.184-4.123,0.551c-1.352,0.368-2.506,0.891-3.467,1.562l1.831,3.539c0.632-0.499,1.399-0.895,2.305-1.187
			c0.905-0.291,1.825-0.436,2.765-0.436c1.373,0,2.391,0.304,3.056,0.909c0.668,0.607,0.999,1.451,0.999,2.534h-4.055
			c-1.789,0-3.238,0.223-4.353,0.667c-1.11,0.442-1.925,1.056-2.435,1.835c-0.512,0.78-0.77,1.689-0.77,2.728
			s0.264,1.894,0.787,2.694c0.522,0.803,1.274,1.435,2.256,1.899c0.982,0.466,2.158,0.699,3.531,0.699
			c1.548,0,2.813-0.291,3.794-0.875c0.665-0.396,1.187-0.919,1.569-1.563v2.181h4.775v-9.97c0-2.663-0.742-4.622-2.224-5.878"/>
		<g>
			<path fill="#39677B" d="M144.298,10.95c-0.742,0.409-1.352,0.943-1.83,1.597v-2.298h-4.872v17.474h5.103v-8.25
				c0-1.667,0.428-2.897,1.291-3.687c0.858-0.79,1.989-1.185,3.383-1.185c0.198,0,0.381,0.004,0.558,0.015
				c0.174,0.014,0.37,0.027,0.589,0.049V9.987c-1.658,0-3.064,0.319-4.221,0.956"/>
		</g>
		<polygon fill="#39677B" points="61.607,22.757 56.786,10.249 51.566,10.249 58.996,27.723 59.694,27.723 63.521,27.723 
			64.218,27.723 71.652,10.249 66.431,10.249 		"/>
	</g>
</g>
</svg>
